<svg width="40" height="36" viewBox="0 0 40 36" fill="none" xmlns="http://www.w3.org/2000/svg">
<path d="M13.7622 17.6394C13.7992 14.3983 16.7291 11.8188 20.3075 11.8788C23.8859 11.9388 26.7575 14.6157 26.7206 17.8568C26.6837 21.098 23.7521 23.6775 20.1738 23.6174C16.5954 23.5574 13.7253 20.8805 13.7622 17.6394ZM10.2593 17.5806C10.2024 22.5738 14.6249 26.6963 20.1376 26.7888C25.6503 26.8813 30.1651 22.9088 30.222 17.9156C30.2789 12.9224 25.8564 8.79987 20.3436 8.70737C14.8309 8.61487 10.3162 12.5874 10.2593 17.5806ZM28.3916 8.48387C28.3778 9.65072 29.4109 10.6145 30.6992 10.6366C31.9874 10.6587 33.043 9.73069 33.0568 8.56384C33.0706 7.39699 32.0375 6.43317 30.7492 6.41109C29.4616 6.39002 28.406 7.31759 28.3916 8.48387ZM12.2243 31.9476C10.33 31.8376 9.30317 31.5344 8.62139 31.2814C7.7175 30.9461 7.07431 30.5541 6.40052 29.9269C5.72673 29.2997 5.31198 28.7067 4.96959 27.8787C4.7098 27.2545 4.40476 26.3159 4.33817 24.5979C4.26508 22.7405 4.25261 22.1827 4.30619 17.4809C4.35976 12.7791 4.38647 12.2235 4.50031 10.3676C4.60618 8.65251 4.9348 7.72639 5.20625 7.10925C5.56892 6.29316 5.99641 5.71372 6.68331 5.10847C7.37021 4.50323 8.02146 4.13238 8.93419 3.82902C9.62117 3.5988 10.6548 3.33016 12.5509 3.28393C14.6008 3.23295 15.2165 3.22623 20.4051 3.3133C25.5937 3.40036 26.2096 3.42915 28.2594 3.5475C30.1536 3.65747 31.1787 3.96277 31.8622 4.21373C32.7661 4.54757 33.4093 4.94099 34.0831 5.56822C34.7569 6.19545 35.1701 6.78985 35.514 7.61779C35.7738 8.24201 36.0788 9.1806 36.1454 10.8986C36.2185 12.7576 36.231 13.3139 36.1774 18.0156C36.1238 22.7174 36.0987 23.2731 35.9833 25.1289C35.8774 26.844 35.5495 27.7717 35.2773 28.3873C34.9147 29.2034 34.4872 29.7828 33.8003 30.3866C33.1134 30.9905 32.4606 31.3613 31.5494 31.6661C30.8624 31.8963 29.8288 32.165 27.9327 32.2112C25.8828 32.2622 25.2671 32.2689 20.0762 32.1818C14.8852 32.0947 14.2716 32.0673 12.2243 31.9476ZM12.426 0.113744C10.3557 0.164379 8.9383 0.437851 7.69846 0.852364C6.41445 1.28036 5.32495 1.86519 4.23194 2.82539C3.13893 3.7856 2.46373 4.75662 1.95431 5.90666C1.46104 7.01781 1.11834 8.29237 1.00274 10.1651C0.885561 12.0408 0.856796 12.6406 0.802316 17.4219C0.747835 22.2033 0.762923 22.8039 0.837325 24.6827C0.910204 26.5588 1.22374 27.8442 1.6915 28.9715C2.17453 30.1375 2.8275 31.1319 3.89806 32.128C4.96862 33.1241 6.04455 33.7444 7.3183 34.2166C8.55055 34.6726 9.95885 34.9934 12.0272 35.1135C14.0999 35.2337 14.7612 35.266 20.04 35.3546C25.3188 35.4432 25.9817 35.4345 28.0553 35.3825C30.1257 35.3318 31.5422 35.0583 32.7828 34.6438C34.066 34.2146 35.1563 33.631 36.2493 32.6708C37.3423 31.7106 38.0161 30.7389 38.527 29.5895C39.0202 28.4784 39.3645 27.2039 39.4785 25.3311C39.5942 23.454 39.6229 22.8556 39.6774 18.0742C39.7319 13.2929 39.7168 12.6923 39.6439 10.8135C39.5711 8.93743 39.2575 7.6513 38.7898 6.52473C38.3053 5.35871 37.6522 4.36625 36.5832 3.36822C35.5142 2.37019 34.436 1.75054 33.1645 1.27966C31.9323 0.823669 30.5224 0.50135 28.4556 0.382707C26.384 0.262574 25.7216 0.230187 20.4428 0.141613C15.164 0.0530394 14.5007 0.0617737 12.426 0.113744Z" fill="url(#paint0_radial_25_76)"/>
<defs>
<radialGradient id="paint0_radial_25_76" cx="0" cy="0" r="1" gradientUnits="userSpaceOnUse" gradientTransform="translate(77.1928 567.272) rotate(0.961282) scale(812.117 735.549)">
<stop offset="0.09" stop-color="#FA8F21"/>
<stop offset="0.78" stop-color="#D82D7E"/>
</radialGradient>
</defs>
</svg>
