<svg width="32" height="28" viewBox="0 0 32 28" fill="none" xmlns="http://www.w3.org/2000/svg">
<path d="M29.0627 0.934L3.21396 0.500282C2.62753 0.485127 2.06032 0.677695 1.6368 1.03573C1.21327 1.39377 0.968022 1.88803 0.954861 2.41006L0.691578 25.5166C0.694152 26.0381 0.928633 26.5393 1.34371 26.9105C1.75878 27.2816 2.32065 27.4925 2.90635 27.497L28.7551 27.9308C29.3416 27.9447 29.9084 27.7515 30.3317 27.3932C30.755 27.0349 31.0004 26.5408 31.0142 26.0188L31.2775 2.9122C31.273 2.39141 31.0378 1.89146 30.6231 1.52104C30.2083 1.15061 29.6476 0.939648 29.0627 0.934Z" fill="#0076B2"/>
<path d="M5.32457 12.9086C5.33873 11.6656 6.35784 10.6748 7.6008 10.6956C8.84376 10.7165 9.83989 11.7411 9.82573 12.9842L9.7301 21.3769C9.71594 22.62 8.69684 23.6108 7.45388 23.5899C6.21091 23.5691 5.21478 22.5445 5.22894 21.3014L5.32457 12.9086ZM7.67516 4.27841C8.19142 4.28707 8.69453 4.43186 9.12084 4.69447C9.54715 4.95708 9.87751 5.3257 10.0701 5.75371C10.2627 6.18171 10.3089 6.64987 10.2029 7.09895C10.0969 7.54803 9.84336 7.95786 9.47443 8.27659C9.1055 8.59532 8.63774 8.80863 8.13032 8.88953C7.6229 8.97044 7.09862 8.9153 6.62381 8.7311C6.149 8.5469 5.74498 8.24192 5.46288 7.85472C5.18077 7.46753 5.03325 7.01553 5.03898 6.5559C5.04666 5.94006 5.32863 5.35426 5.82294 4.92721C6.31724 4.50016 6.98345 4.2668 7.67516 4.27841Z" fill="white"/>
<path d="M12.6506 12.9381C12.6641 11.7465 13.641 10.7967 14.8325 10.8167L16.1048 10.8381C16.5936 10.8463 16.9854 11.2492 16.9798 11.7381L16.9702 12.5852C16.9699 12.6062 16.9868 12.6235 17.0077 12.6239C17.0212 12.6241 17.0335 12.6174 17.0406 12.606C17.6603 11.6082 19.1342 10.5768 21.3107 10.6134C25.8691 10.681 26.6837 13.3661 26.6443 16.8292L26.5893 21.6596C26.5751 22.9026 25.556 23.8934 24.313 23.8725C23.0701 23.8517 22.0739 22.8271 22.0881 21.584L22.1339 17.5614C22.1509 16.0677 22.143 14.1442 19.834 14.1055C17.5251 14.0667 17.1138 15.6888 17.0945 17.3794L17.0475 21.5032C17.0334 22.7442 16.016 23.7333 14.7751 23.7125C13.5342 23.6917 12.5397 22.6688 12.5538 21.4278L12.6506 12.9381Z" fill="white"/>
</svg>
