<svg width="61" height="53" viewBox="0 0 61 53" fill="none" xmlns="http://www.w3.org/2000/svg">
<path d="M40.9244 50.6204C38.0698 50.1749 35.1464 49.1502 32.1986 47.5954C29.3235 46.0731 26.4814 44.1559 23.7611 41.9419C21.0691 39.7112 18.5088 37.2907 16.1277 34.7086C13.778 32.0893 11.6992 29.386 9.9076 26.6643C8.10295 23.8564 6.72776 21.1156 5.84555 18.5359C4.91207 15.7797 4.62314 13.2084 4.96956 10.8836C5.20869 9.27887 5.78921 7.81163 6.68282 6.49852C7.60781 5.1482 8.94694 3.96778 10.6627 3.0356C12.8408 1.77561 15.1804 1.34078 17.555 1.7114C18.5402 1.86517 19.5231 2.20804 20.3329 2.67127C21.263 3.19536 22.0138 3.88095 22.5098 4.71622L27.368 12.3585C27.8096 13.0379 28.128 13.677 28.32 14.2965C28.5565 14.9649 28.6413 15.6097 28.5524 16.2063C28.4359 16.9881 28.0446 17.706 27.4068 18.3433C26.9451 18.8396 26.2752 19.3455 25.4537 19.8278L23.5182 21.0204C23.5343 21.0861 23.5534 21.1312 23.5725 21.1763C23.8113 21.6556 24.3072 22.4909 25.3037 23.7832C26.3699 25.1286 27.3756 26.3592 28.3935 27.5075C29.7062 28.9334 30.803 30.0729 31.8486 31.0361C33.1413 32.2484 34.0024 32.888 34.5245 33.2011L34.4586 33.296L36.5235 32.1026C37.4016 31.587 38.23 31.2321 39.0086 31.0379C40.5022 30.5552 42.289 30.7078 43.9684 31.5804C44.5915 31.9092 45.2528 32.3282 45.9463 32.8785L53.6098 39.0429C54.4678 39.7031 55.0518 40.4679 55.3395 41.3128C55.6019 42.1537 55.6714 42.9014 55.5641 43.6214C55.417 44.609 54.9919 45.5531 54.3235 46.3961C53.655 47.2391 52.8787 47.939 51.9347 48.5495C50.3016 49.6209 48.5974 50.3023 46.6896 50.615C44.8607 50.919 42.9201 50.9319 40.9244 50.6204ZM17.0951 4.79742C15.7057 4.58057 14.3438 4.87325 12.9588 5.66758C11.6649 6.37087 10.7125 7.21166 10.0509 8.18205C9.36096 9.16907 8.93973 10.2612 8.75885 11.475C8.47374 13.3883 8.71987 15.553 9.51257 17.8661C10.3244 20.2243 11.5787 22.7358 13.2624 25.3143C14.9461 27.8928 16.9169 30.453 19.1335 32.9251C21.3562 35.3562 23.8024 37.6748 26.3582 39.7789C28.8443 41.83 31.4521 43.5843 34.0899 44.9644C38.1859 47.1405 42.1757 48.1211 45.6789 47.51C47.0316 47.279 48.2665 46.7981 49.4433 46.0134C50.1009 45.5897 50.6384 45.1052 51.1155 44.506C51.4953 44.039 51.7265 43.5277 51.8062 42.9928C51.8553 42.6636 51.8286 42.3226 51.6816 41.9208C51.6243 41.7855 51.5064 41.5355 51.0663 41.1932L43.4028 35.0288C42.9405 34.662 42.5164 34.3852 42.1085 34.1742C41.5803 33.9023 41.3805 33.6817 40.4572 33.9796C39.9213 34.1065 39.4206 34.3442 38.8541 34.6768L36.7043 35.9201C35.6025 36.5482 34.0592 36.4968 32.9493 35.9656L32.304 35.6123C31.3357 34.998 30.2274 34.1093 29.0265 32.9745C27.9396 31.9417 26.7731 30.7492 25.3717 29.2253C24.2871 28.0034 23.2118 26.7198 22.1043 25.3049C21.0856 23.988 20.3708 22.887 19.9598 22.0019L19.7487 21.3373C19.6676 20.8405 19.6569 20.5652 19.6999 20.2771C19.8102 19.5365 20.2367 18.9294 20.9449 18.5136L23.0787 17.2046C23.6452 16.872 24.0824 16.5402 24.3872 16.2299C24.6291 15.994 24.7386 15.7795 24.7693 15.5738C24.7938 15.4092 24.7548 15.1505 24.6653 14.8839C24.5375 14.5271 24.3148 14.1134 24.0194 13.6673L19.1642 6.00452C18.9545 5.67707 18.682 5.42402 18.3245 5.22086C17.9418 5.01377 17.5246 4.86445 17.0951 4.79742ZM34.4556 33.3166L33.8429 34.6525L34.7396 33.3188C34.6163 33.2785 34.5122 33.2834 34.4556 33.3166Z" fill="url(#paint0_linear_11_26)"/>
<defs>
<linearGradient id="paint0_linear_11_26" x1="33.6973" y1="4.23082" x2="26.8011" y2="48.4161" gradientUnits="userSpaceOnUse">
<stop stop-color="#ADD2FF"/>
<stop offset="1" stop-color="#4394FB"/>
</linearGradient>
</defs>
</svg>
