<svg width="38" height="36" viewBox="0 0 38 36" fill="none" xmlns="http://www.w3.org/2000/svg">
<path d="M7.18536 33.3239C4.01291 34.0448 1.23366 31.0519 2.188 27.9425C2.53961 26.7968 2.35984 25.5648 1.86029 24.4709C0.867199 22.2962 0.360106 19.9458 0.394218 17.5634C0.501585 8.14046 8.81607 0.617262 18.9243 0.786868C23.8289 0.869163 28.4145 2.72451 31.8321 6.01084C35.2585 9.29732 37.1169 13.6229 37.0561 18.1867C36.9487 27.6096 28.6343 35.1328 18.5261 34.9632L18.5173 34.9631C16.047 34.9216 13.6163 34.4132 11.3715 33.483C10.3217 33.048 9.17027 32.8728 8.06557 33.1238L7.18536 33.3239ZM9.65129 29.7863C10.0488 29.6956 10.4667 29.7598 10.8202 29.9659C13.1435 31.2997 15.8166 32.0248 18.5501 32.0788L18.5589 32.079C26.9531 32.2198 33.8641 25.968 33.9533 18.1347C33.9966 14.3409 32.455 10.75 29.6114 8.01424C26.7678 5.27843 22.9523 3.73924 18.8826 3.67095C10.4796 3.52996 3.56867 9.78183 3.47941 17.6151C3.44888 20.2945 4.21897 22.9218 5.72261 25.2089C5.94713 25.5555 6.00715 25.983 5.88654 26.3762L5.73845 26.8591C5.1796 28.6813 6.80919 30.4344 8.66784 30.0106L9.65129 29.7863Z" fill="black" fill-opacity="0.24"/>
<path d="M7.69591 32.5001C4.67098 33.1874 2.02114 30.3335 2.9315 27.3687C3.26729 26.2752 3.0951 25.0991 2.61842 24.0548C1.67203 21.9813 1.19099 19.7394 1.21685 17.4704C1.31919 8.48813 9.24974 1.31261 18.8766 1.47414C23.5554 1.55265 27.9198 3.32555 31.1834 6.45591C34.447 9.58626 36.2146 13.7113 36.165 18.0649C36.0626 27.0471 28.1321 34.2227 18.5052 34.0611L18.4966 34.061C16.1416 34.0215 13.8256 33.5368 11.6882 32.6515C10.6872 32.2369 9.58932 32.0699 8.53603 32.3092L7.69591 32.5001Z" fill="url(#paint0_linear_25_130)"/>
<path d="M7.29878 33.0245C4.16571 33.7365 1.42096 30.7808 2.36345 27.7099C2.7107 26.5785 2.53316 25.3618 2.03981 24.2815C1.05905 22.1337 0.558247 19.8125 0.591936 17.4597C0.69797 8.15372 8.90925 0.723914 18.892 0.891414C23.7358 0.972688 28.2644 2.805 31.6395 6.05054C35.0234 9.29623 36.8588 13.5681 36.7987 18.0753C36.6927 27.3812 28.4814 34.811 18.4987 34.6435L18.49 34.6434C16.0505 34.6024 13.6499 34.1003 11.433 33.1817C10.3962 32.7521 9.25905 32.5791 8.16806 32.827L7.29878 33.0245ZM9.73409 29.5309C10.1267 29.4413 10.5394 29.5047 10.8885 29.7082C13.183 31.0255 15.8229 31.7416 18.5225 31.795L18.5312 31.7951C26.8212 31.9342 33.6463 25.7599 33.7345 18.0239C33.7772 14.2772 32.2548 10.7309 29.4464 8.02907C26.6381 5.32722 22.87 3.80713 18.8508 3.7397C10.5522 3.60045 3.72698 9.77472 3.63883 17.5108C3.60868 20.1569 4.36921 22.7516 5.85419 25.0103C6.07591 25.3526 6.1352 25.7748 6.01608 26.1631L5.86983 26.64C5.31792 28.4396 6.92728 30.1709 8.76285 29.7523L9.73409 29.5309Z" fill="white"/>
<path d="M14.2492 10.6228C13.9187 9.91315 13.5629 9.891 13.2419 9.87752C12.9815 9.86506 12.6777 9.85996 12.3739 9.85486C12.0701 9.84976 11.5827 9.9468 11.1613 10.3606C10.7398 10.7744 9.565 11.7745 9.5413 13.8542C9.5177 15.9258 11.1181 17.9598 11.3406 18.2468C11.563 18.5339 14.421 22.9767 18.9938 24.745C22.7972 26.2171 23.5817 25.947 24.4072 25.888C25.2413 25.8291 27.0924 24.9132 27.4856 23.9324C27.8701 22.9514 27.8797 22.1099 27.7689 21.9299C27.6581 21.75 27.3555 21.6397 26.9065 21.4218C26.4575 21.2038 24.2468 20.1469 23.8318 19.9942C23.4168 19.8416 23.1137 19.7718 22.8138 20.1876C22.5052 20.6033 21.6263 21.5355 21.3627 21.8144C21.099 22.0932 20.8296 22.1211 20.3806 21.9031C19.9316 21.6851 18.4783 21.2156 16.7673 19.7462C15.4345 18.6069 14.5388 17.2079 14.2832 16.7827C14.0276 16.3575 14.2645 16.1349 14.4926 15.9283C14.6944 15.7455 14.9496 15.4422 15.1781 15.2033C15.4066 14.9643 15.4867 14.7876 15.6375 14.5068C15.7883 14.2261 15.7216 13.9821 15.6112 13.7699C15.5007 13.5576 14.639 11.463 14.2492 10.6228Z" fill="white"/>
<defs>
<linearGradient id="paint0_linear_25_130" x1="4397.13" y1="8523.6" x2="4538.86" y2="76.8428" gradientUnits="userSpaceOnUse">
<stop stop-color="#20B038"/>
<stop offset="1" stop-color="#60D66A"/>
</linearGradient>
</defs>
</svg>
