<svg width="40" height="37" viewBox="0 0 40 37" fill="none" xmlns="http://www.w3.org/2000/svg">
<path d="M19.6516 36.1172C30.4873 36.299 39.3611 28.5637 39.4719 18.8399C39.5827 9.11606 30.8885 1.08597 20.0528 0.904152C9.21715 0.72234 0.343287 8.45766 0.232491 18.1815C0.121695 27.9053 8.81592 35.9354 19.6516 36.1172Z" fill="#1DA1F2"/>
<path d="M30.107 13.2757C29.3834 13.549 28.6109 13.7287 27.7975 13.8044C28.6303 13.3713 29.2745 12.677 29.5829 11.843C28.8043 12.2357 27.9387 12.517 27.0248 12.6668C26.3009 11.953 25.2674 11.4954 24.1102 11.476C21.8953 11.4388 20.0797 13.0214 20.0571 15.0056C20.0539 15.291 20.089 15.5668 20.1512 15.8292C16.819 15.6323 13.8771 14.1452 11.9246 11.9388C11.5698 12.4625 11.3674 13.0713 11.3598 13.7419C11.3455 14.9936 12.0419 16.1059 13.1113 16.7704C12.4524 16.7387 11.8373 16.5668 11.3001 16.2895L11.2996 16.3342C11.2797 18.0811 12.6426 19.5588 14.4782 19.9198C14.14 19.9967 13.7832 20.032 13.4192 20.0259C13.1624 20.0216 12.9174 19.9968 12.6726 19.9514C13.1698 21.3906 14.6371 22.4573 16.3995 22.5144C15.0204 23.4578 13.2742 24.0029 11.408 23.9715C11.09 23.9662 10.7721 23.9437 10.4544 23.9074C12.2285 24.9587 14.3254 25.5889 16.5978 25.627C23.9744 25.7508 28.0719 20.3336 28.126 15.5847C28.1278 15.4334 28.1295 15.2786 28.1198 15.1237C28.9073 14.6313 29.6004 14.0067 30.1451 13.2935L30.107 13.2757Z" fill="white"/>
</svg>
